<svg width="319" height="559" viewBox="0 0 319 559" fill="none" xmlns="http://www.w3.org/2000/svg">
<path fill-rule="evenodd" clip-rule="evenodd" d="M205.001 178.178C205.01 178.048 205.014 177.916 205.014 177.783C205.014 174.694 202.602 172.189 199.627 172.189C196.651 172.189 194.239 174.694 194.239 177.783C194.239 177.916 194.244 178.048 194.253 178.178C175.971 180.887 161.915 197.211 161.915 216.944V256.105H156.528C153.553 256.105 151.141 258.61 151.141 261.7C151.141 264.789 153.553 267.294 156.528 267.294H183.465C183.465 276.563 190.701 284.077 199.627 284.077C208.553 284.077 215.789 276.563 215.789 267.294H242.725C245.701 267.294 248.113 264.789 248.113 261.7C248.113 258.61 245.701 256.105 242.725 256.105H237.338V216.944C237.338 197.211 223.283 180.887 205.001 178.178ZM226.563 216.944V256.105H172.69V216.944C172.69 201.496 184.75 188.972 199.627 188.972C214.503 188.972 226.563 201.496 226.563 216.944ZM199.627 272.889C196.651 272.889 194.239 270.384 194.239 267.294H205.014C205.014 270.384 202.602 272.889 199.627 272.889Z" fill="#8B8B8C"/>
<path fill-rule="evenodd" clip-rule="evenodd" d="M39.6961 369.516C47.0039 369.516 52.9281 363.471 52.9281 356.013C52.9281 348.555 47.0039 342.509 39.6961 342.509C32.3882 342.509 26.464 348.555 26.464 356.013C26.464 363.471 32.3882 369.516 39.6961 369.516ZM35.2854 356.013C35.2854 353.527 37.2601 351.511 39.6961 351.511C42.132 351.511 44.1068 353.527 44.1068 356.013C44.1068 358.499 42.132 360.514 39.6961 360.514C37.2601 360.514 35.2854 358.499 35.2854 356.013Z" fill="#8B8B8C"/>
<path fill-rule="evenodd" clip-rule="evenodd" d="M17.6427 324.504C12.7708 324.504 8.82129 328.534 8.82129 333.506V396.524C8.82129 401.496 12.7708 405.527 17.6427 405.527H88.2136C93.0855 405.527 97.035 401.496 97.035 396.524V333.506C97.035 328.534 93.0855 324.504 88.2136 324.504H17.6427ZM88.2136 333.506H17.6427V396.524H18.2736L41.3138 377.286C42.8845 375.974 45.1296 375.926 46.7532 377.169L52.6914 381.714L69.8459 366.152C71.4351 364.711 73.8058 364.631 75.4841 365.963L88.2136 376.067V333.506ZM88.2136 396.524H32.2041L44.2251 386.487L50.2817 391.122C51.9594 392.407 54.2911 392.308 55.8584 390.886L72.9644 375.368L88.2136 387.472V396.524Z" fill="#8B8B8C"/>
<path d="M118.25 346.333C118.25 330.869 130.506 318.333 145.625 318.333H191.25C196.29 318.333 200.375 322.512 200.375 327.667C200.375 332.821 196.29 337 191.25 337H145.625C140.585 337 136.5 341.179 136.5 346.333V383.667C136.5 388.821 140.585 393 145.625 393H191.25C196.29 393 200.375 397.179 200.375 402.333C200.375 407.488 196.29 411.667 191.25 411.667H145.625C130.506 411.667 118.25 399.131 118.25 383.667V346.333Z" fill="#8B8B8C"/>
<path d="M218.625 327.667C218.625 322.512 222.71 318.333 227.75 318.333H273.375C288.494 318.333 300.75 330.869 300.75 346.333V383.667C300.75 399.131 288.494 411.667 273.375 411.667H227.75C222.71 411.667 218.625 407.488 218.625 402.333C218.625 397.179 222.71 393 227.75 393H273.375C278.415 393 282.5 388.821 282.5 383.667V346.333C282.5 341.179 278.415 337 273.375 337H227.75C222.71 337 218.625 332.821 218.625 327.667Z" fill="#8B8B8C"/>
<path d="M168.438 355.667C163.398 355.667 159.313 359.845 159.313 365C159.313 370.155 163.398 374.333 168.438 374.333H250.563C255.602 374.333 259.688 370.155 259.688 365C259.688 359.845 255.602 355.667 250.563 355.667H168.438Z" fill="#8B8B8C"/>
<path d="M95.7853 455.104C92.6862 455.104 90.1739 457.673 90.1739 460.843C90.1739 464.013 92.6862 466.583 95.7853 466.583H140.676C143.775 466.583 146.287 464.013 146.287 460.843C146.287 457.673 143.775 455.104 140.676 455.104H95.7853Z" fill="#8B8B8C"/>
<path d="M90.1739 483.801C90.1739 480.631 92.6862 478.061 95.7853 478.061H140.676C143.775 478.061 146.287 480.631 146.287 483.801C146.287 486.971 143.775 489.54 140.676 489.54H95.7853C92.6862 489.54 90.1739 486.971 90.1739 483.801Z" fill="#8B8B8C"/>
<path d="M95.7853 501.019C92.6862 501.019 90.1739 503.589 90.1739 506.759C90.1739 509.929 92.6862 512.498 95.7853 512.498H118.231C121.33 512.498 123.842 509.929 123.842 506.759C123.842 503.589 121.33 501.019 118.231 501.019H95.7853Z" fill="#8B8B8C"/>
<path fill-rule="evenodd" clip-rule="evenodd" d="M78.9512 432.146C72.7531 432.146 67.7285 437.285 67.7285 443.625V535.456C67.7285 541.796 72.7531 546.935 78.9512 546.935H157.51C163.708 546.935 168.733 541.796 168.733 535.456V443.625C168.733 437.285 163.708 432.146 157.51 432.146H78.9512ZM157.51 443.625H78.9512L78.9512 535.456H126.997L157.51 501.645V443.625ZM157.51 535.456H142.27L157.51 518.569V535.456Z" fill="#8B8B8C"/>
<path d="M236.345 466.057C238.662 466.057 240.54 468.075 240.54 470.563V497.598C240.54 500.086 238.662 502.103 236.345 502.103C234.028 502.103 232.149 500.086 232.149 497.598V470.563C232.149 468.075 234.028 466.057 236.345 466.057Z" fill="#8B8B8C"/>
<path d="M236.345 457.046C238.662 457.046 240.54 455.029 240.54 452.54C240.54 450.052 238.662 448.034 236.345 448.034C234.028 448.034 232.149 450.052 232.149 452.54C232.149 455.029 234.028 457.046 236.345 457.046Z" fill="#8B8B8C"/>
<path fill-rule="evenodd" clip-rule="evenodd" d="M236.345 520.126C259.515 520.126 278.299 499.954 278.299 475.069C278.299 450.184 259.515 430.011 236.345 430.011C213.174 430.011 194.391 450.184 194.391 475.069C194.391 499.954 213.174 520.126 236.345 520.126ZM236.345 511.115C254.881 511.115 269.908 494.977 269.908 475.069C269.908 455.161 254.881 439.023 236.345 439.023C217.808 439.023 202.781 455.161 202.781 475.069C202.781 494.977 217.808 511.115 236.345 511.115Z" fill="#8B8B8C"/>
<path d="M243.862 126.63C246.385 126.63 248.431 124.557 248.431 122C248.431 119.443 246.385 117.37 243.862 117.37C241.339 117.37 239.294 119.443 239.294 122C239.294 124.557 241.339 126.63 243.862 126.63Z" fill="#8B8B8C"/>
<path d="M266.703 122C266.703 124.557 264.658 126.63 262.135 126.63C259.612 126.63 257.567 124.557 257.567 122C257.567 119.443 259.612 117.37 262.135 117.37C264.658 117.37 266.703 119.443 266.703 122Z" fill="#8B8B8C"/>
<path d="M280.408 126.63C282.931 126.63 284.976 124.557 284.976 122C284.976 119.443 282.931 117.37 280.408 117.37C277.885 117.37 275.84 119.443 275.84 122C275.84 124.557 277.885 126.63 280.408 126.63Z" fill="#8B8B8C"/>
<path d="M248.431 140.519C248.431 143.076 246.385 145.149 243.862 145.149C241.339 145.149 239.294 143.076 239.294 140.519C239.294 137.962 241.339 135.89 243.862 135.89C246.385 135.89 248.431 137.962 248.431 140.519Z" fill="#8B8B8C"/>
<path d="M262.135 145.149C264.658 145.149 266.703 143.076 266.703 140.519C266.703 137.962 264.658 135.89 262.135 135.89C259.612 135.89 257.567 137.962 257.567 140.519C257.567 143.076 259.612 145.149 262.135 145.149Z" fill="#8B8B8C"/>
<path fill-rule="evenodd" clip-rule="evenodd" d="M243.862 80.3311C243.862 77.7741 241.817 75.7012 239.294 75.7012C236.771 75.7012 234.726 77.7741 234.726 80.3311H225.59C220.544 80.3311 216.453 84.4768 216.453 89.5908V154.409C216.453 159.523 220.544 163.669 225.59 163.669H298.681C303.727 163.669 307.817 159.523 307.817 154.409V89.5908C307.817 84.4768 303.727 80.3311 298.681 80.3311H289.545C289.545 77.7741 287.499 75.7012 284.976 75.7012C282.453 75.7012 280.408 77.7741 280.408 80.3311H243.862ZM225.59 98.8506V89.5908H298.681V98.8506H225.59ZM225.59 108.11V154.409H272.056L298.681 127.424V108.11H225.59ZM298.681 140.52L284.976 154.409H298.681V140.52Z" fill="#8B8B8C"/>
<path d="M17.583 89.5834C17.583 74.7407 29.3915 62.7084 43.958 62.7084H87.9164C92.7719 62.7084 96.708 66.7192 96.708 71.6667C96.708 76.6143 92.7719 80.625 87.9164 80.625H43.958C39.1025 80.625 35.1663 84.6358 35.1663 89.5834V125.417C35.1663 130.364 39.1025 134.375 43.958 134.375H87.9164C92.7719 134.375 96.708 138.386 96.708 143.333C96.708 148.281 92.7719 152.292 87.9164 152.292H43.958C29.3915 152.292 17.583 140.259 17.583 125.417V89.5834Z" fill="#8B8B8C"/>
<path d="M114.291 71.6667C114.291 66.7192 118.228 62.7084 123.083 62.7084H167.041C181.608 62.7084 193.416 74.7407 193.416 89.5834V125.417C193.416 140.259 181.608 152.292 167.041 152.292H123.083C118.228 152.292 114.291 148.281 114.291 143.333C114.291 138.386 118.228 134.375 123.083 134.375H167.041C171.897 134.375 175.833 130.364 175.833 125.417V89.5834C175.833 84.6358 171.897 80.625 167.041 80.625H123.083C118.228 80.625 114.291 76.6143 114.291 71.6667Z" fill="#8B8B8C"/>
<path d="M65.9372 98.5417C61.0817 98.5417 57.1455 102.552 57.1455 107.5C57.1455 112.448 61.0817 116.458 65.9372 116.458H145.062C149.918 116.458 153.854 112.448 153.854 107.5C153.854 102.552 149.918 98.5417 145.062 98.5417H65.9372Z" fill="#8B8B8C"/>
<path d="M74.4889 225.818C77.2729 225.818 79.5297 228.236 79.5297 231.22V263.629C79.5297 266.612 77.2728 269.03 74.4889 269.03C71.7049 269.03 69.4481 266.612 69.4481 263.629V231.22C69.4481 228.236 71.7049 225.818 74.4889 225.818Z" fill="#8B8B8C"/>
<path d="M74.4889 215.015C77.2729 215.015 79.5297 212.597 79.5297 209.614C79.5297 206.63 77.2729 204.212 74.4889 204.212C71.7049 204.212 69.4481 206.63 69.4481 209.614C69.4481 212.597 71.7049 215.015 74.4889 215.015Z" fill="#8B8B8C"/>
<path fill-rule="evenodd" clip-rule="evenodd" d="M74.4889 290.636C102.328 290.636 124.897 266.453 124.897 236.621C124.897 206.789 102.328 182.606 74.4889 182.606C46.6494 182.606 24.0811 206.789 24.0811 236.621C24.0811 266.453 46.6494 290.636 74.4889 290.636ZM74.4889 279.833C96.7605 279.833 114.815 260.487 114.815 236.621C114.815 212.756 96.7605 193.409 74.4889 193.409C52.2173 193.409 34.1626 212.756 34.1626 236.621C34.1626 260.487 52.2173 279.833 74.4889 279.833Z" fill="#8B8B8C"/>
</svg>
