<svg width="844" height="558" viewBox="0 0 844 558" fill="none" xmlns="http://www.w3.org/2000/svg">
<path d="M531.42 118.5C526.595 118.5 522.683 122.492 522.683 127.417C522.683 132.341 526.595 136.333 531.42 136.333H601.318C606.144 136.333 610.055 132.341 610.055 127.417C610.055 122.492 606.144 118.5 601.318 118.5H531.42Z" fill="#8B8B8C"/>
<path d="M522.683 163.083C522.683 158.159 526.595 154.167 531.42 154.167H601.318C606.144 154.167 610.055 158.159 610.055 163.083C610.055 168.008 606.144 172 601.318 172H531.42C526.595 172 522.683 168.008 522.683 163.083Z" fill="#8B8B8C"/>
<path d="M531.42 189.833C526.595 189.833 522.683 193.825 522.683 198.75C522.683 203.674 526.595 207.667 531.42 207.667H566.369C571.195 207.667 575.106 203.674 575.106 198.75C575.106 193.825 571.195 189.833 566.369 189.833H531.42Z" fill="#8B8B8C"/>
<path fill-rule="evenodd" clip-rule="evenodd" d="M505.209 82.8333C495.558 82.8333 487.734 90.8175 487.734 100.667V243.333C487.734 253.182 495.558 261.167 505.209 261.167H627.53C637.181 261.167 645.004 253.182 645.004 243.333V100.667C645.004 90.8175 637.181 82.8333 627.53 82.8333H505.209ZM627.53 100.667H505.209L505.209 243.333H580.018L627.53 190.805V100.667ZM627.53 243.333H603.799L627.53 217.097V243.333Z" fill="#8B8B8C"/>
<path fill-rule="evenodd" clip-rule="evenodd" d="M310.237 283.261C310.248 283.092 310.254 282.922 310.254 282.75C310.254 278.746 307.128 275.5 303.272 275.5C299.416 275.5 296.29 278.746 296.29 282.75C296.29 282.922 296.296 283.092 296.308 283.261C272.615 286.772 254.401 307.927 254.401 333.5V384.25H247.419C243.563 384.25 240.437 387.496 240.437 391.5C240.437 395.504 243.563 398.75 247.419 398.75H282.327C282.327 410.762 291.705 420.5 303.272 420.5C314.84 420.5 324.217 410.762 324.217 398.75H359.125C362.981 398.75 366.107 395.504 366.107 391.5C366.107 387.496 362.981 384.25 359.125 384.25H352.143V333.5C352.143 307.927 333.929 286.772 310.237 283.261ZM338.18 333.5V384.25H268.364V333.5C268.364 313.48 283.993 297.25 303.272 297.25C322.551 297.25 338.18 313.48 338.18 333.5ZM303.272 406C299.416 406 296.29 402.754 296.29 398.75H310.254C310.254 402.754 307.128 406 303.272 406Z" fill="#8B8B8C"/>
<path fill-rule="evenodd" clip-rule="evenodd" d="M722.66 158.833C732.13 158.833 739.808 150.998 739.808 141.333C739.808 131.668 732.13 123.833 722.66 123.833C713.189 123.833 705.512 131.668 705.512 141.333C705.512 150.998 713.189 158.833 722.66 158.833ZM716.944 141.333C716.944 138.112 719.503 135.5 722.66 135.5C725.816 135.5 728.376 138.112 728.376 141.333C728.376 144.555 725.816 147.167 722.66 147.167C719.503 147.167 716.944 144.555 716.944 141.333Z" fill="#8B8B8C"/>
<path fill-rule="evenodd" clip-rule="evenodd" d="M694.08 100.5C687.766 100.5 682.648 105.723 682.648 112.167V193.833C682.648 200.277 687.766 205.5 694.08 205.5H785.535C791.849 205.5 796.967 200.277 796.967 193.833V112.167C796.967 105.723 791.849 100.5 785.535 100.5H694.08ZM785.535 112.167H694.08V193.833H694.897L724.756 168.902C726.792 167.202 729.701 167.14 731.805 168.75L739.501 174.64L761.732 154.473C763.791 152.605 766.864 152.502 769.039 154.229L785.535 167.323V112.167ZM785.535 193.833H712.951L728.529 180.826L736.378 186.833C738.552 188.497 741.574 188.369 743.605 186.527L765.773 166.417L785.535 182.103V193.833Z" fill="#8B8B8C"/>
<path d="M387.052 355C387.052 330.976 406.135 311.5 429.676 311.5H500.717C508.564 311.5 514.926 317.992 514.926 326C514.926 334.008 508.564 340.5 500.717 340.5H429.676C421.829 340.5 415.468 346.992 415.468 355V413C415.468 421.008 421.829 427.5 429.676 427.5H500.717C508.564 427.5 514.926 433.992 514.926 442C514.926 450.008 508.564 456.5 500.717 456.5H429.676C406.135 456.5 387.052 437.024 387.052 413V355Z" fill="#8B8B8C"/>
<path d="M543.342 326C543.342 317.992 549.703 311.5 557.55 311.5H628.591C652.132 311.5 671.216 330.976 671.216 355V413C671.216 437.024 652.132 456.5 628.591 456.5H557.55C549.703 456.5 543.342 450.008 543.342 442C543.342 433.992 549.703 427.5 557.55 427.5H628.591C636.438 427.5 642.8 421.008 642.8 413V355C642.8 346.992 636.438 340.5 628.591 340.5H557.55C549.703 340.5 543.342 334.008 543.342 326Z" fill="#8B8B8C"/>
<path d="M465.197 369.5C457.35 369.5 450.989 375.992 450.989 384C450.989 392.008 457.35 398.5 465.197 398.5H593.071C600.918 398.5 607.279 392.008 607.279 384C607.279 375.992 600.918 369.5 593.071 369.5H465.197Z" fill="#8B8B8C"/>
<path d="M376.6 216C379.869 216 382.52 213.314 382.52 210C382.52 206.686 379.869 204 376.6 204C373.33 204 370.68 206.686 370.68 210C370.68 213.314 373.33 216 376.6 216Z" fill="#8B8B8C"/>
<path d="M406.2 210C406.2 213.314 403.55 216 400.28 216C397.01 216 394.36 213.314 394.36 210C394.36 206.686 397.01 204 400.28 204C403.55 204 406.2 206.686 406.2 210Z" fill="#8B8B8C"/>
<path d="M423.96 216C427.23 216 429.88 213.314 429.88 210C429.88 206.686 427.23 204 423.96 204C420.691 204 418.04 206.686 418.04 210C418.04 213.314 420.691 216 423.96 216Z" fill="#8B8B8C"/>
<path d="M382.52 234C382.52 237.314 379.869 240 376.6 240C373.33 240 370.68 237.314 370.68 234C370.68 230.686 373.33 228 376.6 228C379.869 228 382.52 230.686 382.52 234Z" fill="#8B8B8C"/>
<path d="M400.28 240C403.55 240 406.2 237.314 406.2 234C406.2 230.686 403.55 228 400.28 228C397.01 228 394.36 230.686 394.36 234C394.36 237.314 397.01 240 400.28 240Z" fill="#8B8B8C"/>
<path fill-rule="evenodd" clip-rule="evenodd" d="M376.6 156C376.6 152.686 373.949 150 370.68 150C367.41 150 364.759 152.686 364.759 156H352.919C346.38 156 341.079 161.373 341.079 168V252C341.079 258.627 346.38 264 352.919 264H447.641C454.18 264 459.481 258.627 459.481 252V168C459.481 161.373 454.18 156 447.641 156H435.801C435.801 152.686 433.15 150 429.88 150C426.611 150 423.96 152.686 423.96 156H376.6ZM352.919 180V168H447.641V180H352.919ZM352.919 192V252H413.136L447.641 217.03V192H352.919ZM447.641 234L429.881 252H447.641V234Z" fill="#8B8B8C"/>
<path d="M765.284 300C768.892 300 771.817 303.134 771.817 307V349C771.817 352.866 768.892 356 765.284 356C761.677 356 758.752 352.866 758.752 349V307C758.752 303.134 761.677 300 765.284 300Z" fill="#8B8B8C"/>
<path d="M765.284 286C768.892 286 771.817 282.866 771.817 279C771.817 275.134 768.892 272 765.284 272C761.677 272 758.752 275.134 758.752 279C758.752 282.866 761.677 286 765.284 286Z" fill="#8B8B8C"/>
<path fill-rule="evenodd" clip-rule="evenodd" d="M765.284 384C801.362 384 830.61 352.66 830.61 314C830.61 275.34 801.362 244 765.284 244C729.206 244 699.959 275.34 699.959 314C699.959 352.66 729.206 384 765.284 384ZM765.284 370C794.147 370 817.544 344.928 817.544 314C817.544 283.072 794.147 258 765.284 258C736.422 258 713.024 283.072 713.024 314C713.024 344.928 736.422 370 765.284 370Z" fill="#8B8B8C"/>
<path d="M28.4164 145C28.4164 120.976 47.5001 101.5 71.0411 101.5H142.082C149.929 101.5 156.29 107.992 156.29 116C156.29 124.008 149.929 130.5 142.082 130.5H71.0411C63.1941 130.5 56.8328 136.992 56.8328 145V203C56.8328 211.008 63.1941 217.5 71.0411 217.5H142.082C149.929 217.5 156.29 223.992 156.29 232C156.29 240.008 149.929 246.5 142.082 246.5H71.0411C47.5001 246.5 28.4164 227.024 28.4164 203V145Z" fill="#8B8B8C"/>
<path d="M184.707 116C184.707 107.992 191.068 101.5 198.915 101.5H269.956C293.497 101.5 312.581 120.976 312.581 145V203C312.581 227.024 293.497 246.5 269.956 246.5H198.915C191.068 246.5 184.707 240.008 184.707 232C184.707 223.992 191.068 217.5 198.915 217.5H269.956C277.803 217.5 284.164 211.008 284.164 203V145C284.164 136.992 277.803 130.5 269.956 130.5H198.915C191.068 130.5 184.707 124.008 184.707 116Z" fill="#8B8B8C"/>
<path d="M106.562 159.5C98.7146 159.5 92.3534 165.992 92.3534 174C92.3534 182.008 98.7146 188.5 106.562 188.5H234.436C242.283 188.5 248.644 182.008 248.644 174C248.644 165.992 242.283 159.5 234.436 159.5H106.562Z" fill="#8B8B8C"/>
<path d="M141.102 345C144.71 345 147.635 348.134 147.635 352V394C147.635 397.866 144.71 401 141.102 401C137.495 401 134.57 397.866 134.57 394V352C134.57 348.134 137.495 345 141.102 345Z" fill="#8B8B8C"/>
<path d="M141.102 331C144.71 331 147.635 327.866 147.635 324C147.635 320.134 144.71 317 141.102 317C137.495 317 134.57 320.134 134.57 324C134.57 327.866 137.495 331 141.102 331Z" fill="#8B8B8C"/>
<path fill-rule="evenodd" clip-rule="evenodd" d="M141.102 429C177.18 429 206.428 397.66 206.428 359C206.428 320.34 177.18 289 141.102 289C105.024 289 75.7772 320.34 75.7772 359C75.7772 397.66 105.024 429 141.102 429ZM141.102 415C169.965 415 193.362 389.928 193.362 359C193.362 328.072 169.965 303 141.102 303C112.24 303 88.8422 328.072 88.8422 359C88.8422 389.928 112.24 415 141.102 415Z" fill="#8B8B8C"/>
</svg>
