<svg width="28" height="26" viewBox="0 0 28 26" fill="none" xmlns="http://www.w3.org/2000/svg">
<path d="M15.0938 5.72656C15.0938 5.1527 14.6041 4.6875 14 4.6875C13.3959 4.6875 12.9062 5.1527 12.9062 5.72656V11.9609H6.34375C5.73969 11.9609 5.25 12.4261 5.25 13C5.25 13.5739 5.73969 14.0391 6.34375 14.0391H12.9062V20.2734C12.9062 20.8473 13.3959 21.3125 14 21.3125C14.6041 21.3125 15.0938 20.8473 15.0938 20.2734V14.0391H21.6562C22.2603 14.0391 22.75 13.5739 22.75 13C22.75 12.4261 22.2603 11.9609 21.6562 11.9609H15.0938V5.72656Z" fill="white"/>
</svg>
