<svg width="128" height="128" viewBox="0 0 128 128" fill="none" xmlns="http://www.w3.org/2000/svg">
<path d="M69.3333 67.7092C69.4394 67.638 69.5913 67.5537 69.8103 67.4524C70.5593 67.106 71.2545 66.9157 72.3017 66.6291C72.8955 66.4666 73.6024 66.2731 74.4965 66.0026C76.4983 65.3971 79.3882 64.3765 81.6888 62.0002C84.1758 59.4314 85.3333 55.9914 85.3333 51.8519L85.3334 51.7989C85.334 50.5629 85.3367 45.7276 82.5866 41.0932C79.5119 35.9117 73.6481 32.0001 64 32.0001C59.1667 32.0001 55.1842 33.106 51.9895 35.0386C48.8045 36.9653 46.6977 39.5346 45.3289 42.0188C43.9767 44.4727 43.3255 46.8719 43.0044 48.6199C42.8418 49.5053 42.7579 50.2564 42.7144 50.8096C42.6925 51.0871 42.6806 51.3175 42.6742 51.4931C42.6709 51.581 42.6691 51.6555 42.668 51.7155L42.6669 51.7948L42.6667 51.8261L42.6667 51.8397L42.6667 51.846L42.6667 51.8519C42.6667 54.7975 45.0545 57.1853 48 57.1853C50.9294 57.1853 53.3071 54.8236 53.3331 51.9004L53.3332 51.8881C53.3346 51.851 53.3387 51.7661 53.3481 51.6466C53.3671 51.4058 53.4082 51.0227 53.4956 50.5469C53.6745 49.5728 54.0233 48.3423 54.6711 47.1666C55.3023 46.0211 56.1955 44.9607 57.5105 44.1653C58.8158 43.3757 60.8333 42.6667 64 42.6667C70.3519 42.6667 72.4881 44.9773 73.4134 46.5366C74.6222 48.5737 74.6667 50.9223 74.6667 51.8519C74.6667 53.9189 74.1495 54.4525 74.028 54.5779C73.7254 54.8905 73.0887 55.2845 71.4079 55.7929C71.1335 55.8759 70.7776 55.9738 70.3673 56.0867C68.9659 56.4723 66.9289 57.0327 65.3322 57.7713C62.8341 58.9268 60.1723 60.9577 58.9362 64.6963C58.7577 65.2364 58.6667 65.8016 58.6667 66.3705L58.6668 70.6652C58.6668 73.6108 61.0546 76.0001 64.0001 76.0001C66.9456 76.0001 69.3334 73.6123 69.3334 70.6667L69.3333 67.7092Z" fill="#8B8B8C"/>
<path d="M64.0001 96.0001C66.9456 96.0001 69.3334 93.6123 69.3334 90.6667C69.3334 87.7212 66.9456 85.3334 64.0001 85.3334C61.0546 85.3334 58.6667 87.7212 58.6667 90.6667C58.6667 93.6123 61.0546 96.0001 64.0001 96.0001Z" fill="#8B8B8C"/>
<path fill-rule="evenodd" clip-rule="evenodd" d="M64.0001 117.333C93.4553 117.333 117.333 93.4553 117.333 64.0001C117.333 34.5449 93.4553 10.6667 64.0001 10.6667C34.5449 10.6667 10.6667 34.5449 10.6667 64.0001C10.6667 93.4553 34.5449 117.333 64.0001 117.333ZM64.0001 106.667C87.5642 106.667 106.667 87.5642 106.667 64.0001C106.667 40.4359 87.5642 21.3334 64.0001 21.3334C40.4359 21.3334 21.3334 40.4359 21.3334 64.0001C21.3334 87.5642 40.4359 106.667 64.0001 106.667Z" fill="#8B8B8C"/>
</svg>
