<svg width="93" height="93" viewBox="0 0 93 93" fill="none" xmlns="http://www.w3.org/2000/svg">
<path d="M13.623 93H43.957V59.9414H33.0586V49.043H43.957V35.4199C43.957 27.9081 50.0682 21.7969 57.5801 21.7969H71.2031V32.6953H60.3047C57.2998 32.6953 54.8555 35.1397 54.8555 38.1445V49.043H70.7114L68.895 59.9414H54.8555V93H79.377C86.8888 93 93 86.8888 93 79.377V13.623C93 6.11121 86.8888 0 79.377 0H13.623C6.11121 0 0 6.11121 0 13.623V79.377C0 86.8888 6.11121 93 13.623 93ZM5.44922 13.623C5.44922 9.11609 9.11609 5.44922 13.623 5.44922H79.377C83.8839 5.44922 87.5508 9.11609 87.5508 13.623V79.377C87.5508 83.8839 83.8839 87.5508 79.377 87.5508H60.3047V65.3906H73.5112L77.1441 43.5938H60.3047V38.1445H76.6523V16.3477H57.5801C47.0634 16.3477 38.5078 24.9032 38.5078 35.4199V43.5938H27.6094V65.3906H38.5078V87.5508H13.623C9.11609 87.5508 5.44922 83.8839 5.44922 79.377V13.623Z" fill="black"/>
</svg>
