<svg width="93" height="93" viewBox="0 0 93 93" fill="none" xmlns="http://www.w3.org/2000/svg">
<path d="M13.623 93H79.377C86.8888 93 93 86.8888 93 79.377V13.623C93 6.11121 86.8888 0 79.377 0H13.623C6.11121 0 0 6.11121 0 13.623V79.377C0 86.8888 6.11121 93 13.623 93ZM5.44922 13.623C5.44922 9.11609 9.11609 5.44922 13.623 5.44922H79.377C83.8839 5.44922 87.5508 9.11609 87.5508 13.623V79.377C87.5508 83.8839 83.8839 87.5508 79.377 87.5508H13.623C9.11609 87.5508 5.44922 83.8839 5.44922 79.377V13.623Z" fill="black"/>
<path d="M46.5 71C60.009 71 71 60.009 71 46.5C71 32.991 60.009 22 46.5 22C32.991 22 22 32.991 22 46.5C22 60.009 32.991 71 46.5 71ZM46.5 27.4444C57.0075 27.4444 65.5556 35.9925 65.5556 46.5C65.5556 57.0075 57.0075 65.5556 46.5 65.5556C35.9925 65.5556 27.4444 57.0075 27.4444 46.5C27.4444 35.9925 35.9925 27.4444 46.5 27.4444Z" fill="black"/>
<path d="M74 27C78.4111 27 82 23.4111 82 19C82 14.5889 78.4111 11 74 11C69.5889 11 66 14.5889 66 19C66 23.4111 69.5889 27 74 27ZM74 16.3333C75.4701 16.3333 76.6667 17.5299 76.6667 19C76.6667 20.4701 75.4701 21.6667 74 21.6667C72.5299 21.6667 71.3333 20.4701 71.3333 19C71.3333 17.5299 72.5299 16.3333 74 16.3333Z" fill="black"/>
</svg>
