<svg width="93" height="76" viewBox="0 0 93 76" fill="none" xmlns="http://www.w3.org/2000/svg">
<path d="M93 10.1498C87.1499 10.4191 87.2776 10.3971 86.6163 10.4523L90.081 0.573066C90.081 0.573066 79.2663 4.54532 76.5246 5.2559C69.3243 -1.20584 58.6217 -1.49135 50.9701 3.20424C44.7042 7.05039 41.341 13.6552 42.4628 21.3752C30.268 19.6855 19.9932 13.9138 11.8811 4.18402L9.31547 1.10723L7.39831 4.62254C4.97525 9.0645 4.17064 14.1434 5.13206 18.9232C5.52656 20.8842 6.19707 22.7545 7.12585 24.5058L4.92487 23.6542L4.66376 27.3261C4.39911 31.0561 5.64292 35.4102 7.99148 38.9723C8.65276 39.9754 9.5042 41.0771 10.5834 42.1638L9.44602 41.9895L10.8339 46.197C12.6581 51.725 16.447 56.0019 21.3641 58.3794C16.4534 60.4601 12.4864 61.7878 5.96576 63.9294L0 65.8876L5.51024 68.8956C7.61117 70.0426 15.035 73.8732 22.3702 75.0223C38.6753 77.5755 57.033 75.4962 69.3917 64.3828C79.8013 55.0221 83.2169 41.7069 82.5074 27.8504C82.4003 25.7527 82.9757 23.7506 84.128 22.214C86.4361 19.1372 92.9858 10.1704 93 10.1498ZM79.7707 18.9551C77.8571 21.5062 76.8986 24.7644 77.0703 28.1281C77.7862 42.105 73.9774 52.9442 65.7489 60.3433C56.1369 68.987 40.6329 72.3798 23.2138 69.6515C20.0592 69.1577 16.7989 68.0518 14.1006 66.9474C19.5675 65.0693 23.7892 63.3952 30.6072 60.1732L40.1248 55.6753L29.6166 55.0037C24.5832 54.6821 20.392 52.2464 17.8157 48.2919C19.1837 48.2125 20.5027 47.9915 21.816 47.6259L31.8382 44.8389L21.7323 42.3678C16.8216 41.167 14.0225 38.2334 12.5389 35.9833C11.5647 34.5048 10.9282 32.9901 10.5465 31.5938C11.5597 31.8651 12.7411 32.0585 14.6462 32.247L24 33.1708L16.5889 27.3984C11.2489 23.2398 9.10899 16.992 10.6778 10.9858C27.3433 28.245 46.9108 26.9478 48.8805 27.404C48.447 23.1994 48.4356 23.1895 48.3221 22.7892C45.7997 13.8862 51.3277 9.36559 53.821 7.83535C59.0289 4.63955 67.2957 4.1578 73.0217 9.42297C74.2584 10.5593 75.9307 11.0064 77.496 10.6181C78.9009 10.2696 80.0538 9.90047 81.1827 9.49878L78.8327 16.1993L81.8326 16.2014C81.2664 16.9594 80.5874 17.8669 79.7707 18.9551Z" fill="black"/>
</svg>
