<svg width="93" height="71" viewBox="0 0 93 71" fill="none" xmlns="http://www.w3.org/2000/svg">
<path d="M13.623 71H79.377C86.8888 71 93 64.875 93 57.3462V13.6538C93 6.12503 86.8888 0 79.377 0H13.623C6.11121 0 0 6.12503 0 13.6538V57.3462C0 64.875 6.11121 71 13.623 71ZM5.44922 13.6538C5.44922 9.1367 9.11609 5.46154 13.623 5.46154H79.377C83.8839 5.46154 87.5508 9.1367 87.5508 13.6538V57.3462C87.5508 61.8633 83.8839 65.5385 79.377 65.5385H13.623C9.11609 65.5385 5.44922 61.8633 5.44922 57.3462V13.6538Z" fill="black"/>
<path d="M33 17V54L66 35.1966L33 17ZM38.4848 26.2518L54.8476 35.2746L38.4848 44.598V26.2518Z" fill="black"/>
</svg>
